# xmcd
#
# Track frame offsets: 
#        150
#        17250
#        35143
#        56798
#        75137
#        94861
#        114226
#        127616
#        149561
#        168671
#        190269
#
# Disc length: 2916 seconds
#
# Revision: 0
# Processed by: cddbd v1.5.1PL0 Copyright (c) Steve Scherf et al.
# Submitted via: ExactAudioCopy v0.95a5
#
DISCID=860b620b
DTITLE=Original Soul Project - Down
DYEAR=1999
DGENRE=Rock and Roll
TTITLE0=Let's Make It Better
TTITLE1=Save Your Love For Me
TTITLE2=Down
TTITLE3=Contrasts
TTITLE4=On the Dance Floor
TTITLE5=Lies
TTITLE6=Elements
TTITLE7=Foolish Pride
TTITLE8=Lock and Key
TTITLE9=After All
TTITLE10=Let It Go
EXTD=
EXTT0=
EXTT1=
EXTT2=
EXTT3=
EXTT4=
EXTT5=
EXTT6=
EXTT7=
EXTT8=
EXTT9=
EXTT10=
PLAYORDER=
